<?xml version="1.0" encoding="UTF-8"?>
<svg version="1.1" xmlns="http://www.w3.org/2000/svg" width="320" height="108">
<path d="M0 0 C36.33205374 0 36.33205374 0 43.375 6.03515625 C43.91125 6.70417969 44.4475 7.37320312 45 8.0625 C45.556875 8.73410156 46.11375 9.40570313 46.6875 10.09765625 C50.12193942 15.0755491 49.50695967 21.21772082 49 27 C47.44760069 32.96239991 44.01606025 36.27286368 39.09765625 39.7734375 C36.80423916 41.11446724 34.48702488 42.07439422 32 43 C32.76183594 44.00417969 33.52367187 45.00835937 34.30859375 46.04296875 C53 70.76748485 53 70.76748485 53 73 C47.78031236 74.5524071 43.02270318 75.36691809 38 73 C32.06053731 67.30495964 27.97601569 59.8566709 23.75488281 52.85986328 C21.50500193 49.19332117 19.03384363 45.72297869 16.5 42.25 C13 37.36567164 13 37.36567164 13 34 C13.85722656 33.96261719 14.71445313 33.92523438 15.59765625 33.88671875 C26.31887022 33.51022623 26.31887022 33.51022623 35 27.875 C36.44038253 23.73390022 36.29869943 20.18556744 35 16 C28.41030676 9.0634808 22.10358652 10.67357243 12 10 C12 30.79 12 51.58 12 73 C8.04 73 4.08 73 0 73 C0 48.91 0 24.82 0 0 Z " fill="#121728" transform="translate(108,8)"/>
<path d="M0 0 C0.9583374 0.00523682 1.9166748 0.01047363 2.90405273 0.01586914 C4.45576172 0.02070312 4.45576172 0.02070312 6.03881836 0.02563477 C7.12743164 0.03401367 8.21604492 0.04239258 9.33764648 0.05102539 C10.97636719 0.05779297 10.97636719 0.05779297 12.64819336 0.06469727 C15.35723144 0.07652713 18.06616248 0.09300996 20.77514648 0.11352539 C20.89105724 9.54508601 20.97986989 18.97640101 21.03420734 28.40851879 C21.06028836 32.78838975 21.09565829 37.16777301 21.15234375 41.54736328 C21.20671811 45.77490841 21.23657828 50.00198482 21.2495327 54.22985268 C21.25876296 55.84183442 21.27678807 57.45379084 21.30379677 59.06557274 C21.34016196 61.32585203 21.34508912 63.58420125 21.34277344 65.84472656 C21.35942802 67.77332771 21.35942802 67.77332771 21.37641907 69.7408905 C20.6158527 74.00702992 19.12327225 75.45196546 15.77514648 78.11352539 C12.01666474 79.36635264 8.52023729 79.23734374 4.60717773 79.21118164 C3.41495857 79.20905922 3.41495857 79.20905922 2.19865417 79.20689392 C-0.33838677 79.20129917 -2.87533927 79.18874767 -5.41235352 79.17602539 C-7.13305537 79.17100971 -8.8537586 79.16644692 -10.57446289 79.16235352 C-14.79129381 79.15133146 -19.00805867 79.13407045 -23.22485352 79.11352539 C-21.42372922 75.22102367 -18.87941155 72.52713784 -15.91235352 69.48852539 C-9.02445475 62.22207219 -4.18802664 54.5124853 -4.03540039 44.26904297 C-4.01868286 43.31157669 -4.00196533 42.35411041 -3.98474121 41.36763 C-3.97116577 40.34147079 -3.95759033 39.31531158 -3.94360352 38.25805664 C-3.92519409 37.20067795 -3.90678467 36.14329926 -3.88781738 35.05387878 C-3.80910384 30.52837256 -3.74116361 26.00272056 -3.67260742 21.47705078 C-3.62104313 18.17480741 -3.56375173 14.87269847 -3.50610352 11.57055664 C-3.49252808 10.53832474 -3.47895264 9.50609283 -3.46496582 8.44258118 C-3.44824829 7.49457138 -3.43153076 6.54656158 -3.41430664 5.56982422 C-3.39551453 4.3121801 -3.39551453 4.3121801 -3.37634277 3.02912903 C-3.15549316 0.23645365 -2.80232481 0.14299144 0 0 Z " fill="#4265AD" transform="translate(62.224853515625,6.886474609375)"/>
<path d="M0 0 C1.26092972 0.00212242 1.26092972 0.00212242 2.54733276 0.00428772 C5.23732025 0.00989388 7.92722509 0.02244739 10.6171875 0.03515625 C12.43880088 0.04017046 14.26041557 0.0447335 16.08203125 0.04882812 C20.55211527 0.05986531 25.02213736 0.07713405 29.4921875 0.09765625 C27.23634362 3.54106199 25.19286843 6.6040911 22.1171875 9.34765625 C11.56960008 19.5776819 9.44258678 31.87902232 9.17578125 45.96875 C9.15500015 46.89107925 9.13421906 47.81340851 9.11280823 48.76368713 C9.04783112 51.68744008 8.98867066 54.61127686 8.9296875 57.53515625 C8.88645289 59.52670111 8.84283708 61.51823773 8.79882812 63.50976562 C8.69149163 68.37231146 8.59203382 73.23492785 8.4921875 78.09765625 C0.9021875 78.09765625 -6.6878125 78.09765625 -14.5078125 78.09765625 C-14.59822746 68.79639151 -14.67159385 59.49541925 -14.71506119 50.19381428 C-14.7359247 45.87456735 -14.76421937 41.555637 -14.80957031 37.23657227 C-14.85307277 33.0673989 -14.87695891 28.89852979 -14.88732147 24.72914696 C-14.894705 23.13952025 -14.90912353 21.54990995 -14.93073273 19.96041298 C-14.95982658 17.73146375 -14.96376621 15.50376715 -14.96191406 13.2746582 C-14.97079651 12.006689 -14.97967896 10.73871979 -14.98883057 9.43232727 C-14.42314518 5.51069771 -13.26936434 3.88201937 -10.5078125 1.09765625 C-7.22889325 -0.54180338 -3.60167716 -0.02264553 0 0 Z " fill="#4266AF" transform="translate(22.5078125,6.90234375)"/>
<path d="M0 0 C5.75507228 6.09360594 6.70515251 11.01888498 6.515625 19.12109375 C6.50996521 20.043423 6.50430542 20.96575226 6.49847412 21.91603088 C6.47621637 24.84039858 6.42604047 27.76350731 6.375 30.6875 C6.35492127 32.67901867 6.33667291 34.67055669 6.3203125 36.66210938 C6.2763864 41.52521917 6.20743313 46.38739668 6.125 51.25 C2.495 51.25 -1.135 51.25 -4.875 51.25 C-5.37 49.27 -5.37 49.27 -5.875 47.25 C-7.2671875 48.2090625 -7.2671875 48.2090625 -8.6875 49.1875 C-14.29557738 52.81625595 -19.36575016 52.75430343 -25.875 52.25 C-31.05065248 50.52478251 -33.87863877 47.787347 -36.875 43.25 C-38.30896639 38.92170882 -38.05924606 35.86415352 -36.75 31.5 C-32.65570616 24.40322402 -26.38935664 22.52395848 -18.875 20.25 C-14.56094256 19.15162134 -10.23158015 18.16425847 -5.875 17.25 C-6.80955987 12.21303172 -6.80955987 12.21303172 -10.09765625 8.54296875 C-16.34958214 5.63243785 -23.7275912 6.62427872 -30.125 8.75 C-31.3625 9.245 -32.6 9.74 -33.875 10.25 C-33.875 6.95 -33.875 3.65 -33.875 0.25 C-22.66562191 -5.74121932 -11.25154716 -6.84876784 0 0 Z M-15.3125 28.5 C-16.3344043 28.80744141 -16.3344043 28.80744141 -17.37695312 29.12109375 C-20.40290149 30.0991182 -22.59970596 30.97899069 -24.8828125 33.2265625 C-26.17452959 35.35549435 -26.17452959 35.35549435 -25.3125 38.375 C-23.70675027 41.58649946 -23.12550865 42.03686374 -19.875 43.25 C-15.27841834 43.57069174 -11.73590366 42.77708387 -7.8125 40.375 C-4.95888195 35.77239024 -5.45904988 31.52794483 -5.875 26.25 C-9.17269967 26.25 -12.20014285 27.49865838 -15.3125 28.5 Z " fill="#121626" transform="translate(280.875,29.75)"/>
<path d="M0 0 C4.29 0 8.58 0 13 0 C15.08278633 5.43289067 16.97249343 10.88219413 18.69921875 16.4375 C18.9391304 17.20304199 19.17904205 17.96858398 19.42622375 18.75732422 C20.18208531 21.17089762 20.93484559 23.5854248 21.6875 26 C22.2035701 27.64980402 22.71984429 29.29954421 23.23632812 30.94921875 C24.49324331 34.96541268 25.74738067 38.98246426 27 43 C28.69109877 40.46335184 29.46338823 38.91572927 30.31274414 36.09521484 C30.54961441 35.3178598 30.78648468 34.54050476 31.03053284 33.73959351 C31.27955856 32.90513702 31.52858429 32.07068054 31.78515625 31.2109375 C32.17688271 29.92239365 32.17688271 29.92239365 32.57652283 28.6078186 C33.40987576 25.86494202 34.23669544 23.12015781 35.0625 20.375 C35.89249476 17.62289951 36.72392299 14.87126356 37.55918884 12.12075806 C38.07883011 10.40898795 38.59531586 8.69625628 39.1084137 6.98251343 C40.88780272 1.11219728 40.88780272 1.11219728 42 0 C44.01964199 -0.07244053 46.04167124 -0.08377188 48.0625 -0.0625 C49.71958984 -0.04896484 49.71958984 -0.04896484 51.41015625 -0.03515625 C52.26480469 -0.02355469 53.11945313 -0.01195313 54 0 C51.80400651 8.49920248 49.1568177 16.8078722 46.3671875 25.12890625 C45.92524616 26.4535349 45.48352875 27.77823828 45.04202271 29.10301208 C44.12443908 31.85421242 43.2048687 34.60473722 42.28369141 37.35473633 C41.10256627 40.88097763 39.92548307 44.40855194 38.74972343 47.93658543 C37.84160121 50.66068073 36.93191932 53.38425301 36.02170181 56.10764885 C35.58675418 57.40931159 35.15216877 58.71109542 34.71795273 60.0130024 C34.11409761 61.82240553 33.508031 63.63107018 32.90185547 65.43969727 C32.55782684 66.46797134 32.21379822 67.49624542 31.85934448 68.55567932 C31 71 31 71 30 73 C26.04 73 22.08 73 18 73 C20.0623936 65.88474206 22.40189679 58.93706745 25 52 C22.36 51.67 19.72 51.34 17 51 C15.05867211 45.34491069 13.11988434 39.68895904 11.18334961 34.03222656 C10.52550261 32.11174554 9.86698654 30.19149356 9.20776367 28.27148438 C8.25519614 25.4967078 7.30511319 22.72109064 6.35546875 19.9453125 C6.0647197 19.1001004 5.77397064 18.25488831 5.47441101 17.38406372 C3.50849735 11.62738893 1.71956577 5.83513575 0 0 Z " fill="#121727" transform="translate(187,27)"/>
<path d="M0 0 C3.96 0 7.92 0 12 0 C12 24.75 12 49.5 12 75 C8.04 75 4.08 75 0 75 C0 50.25 0 25.5 0 0 Z " fill="#111626" transform="translate(299,6)"/>
<path d="M0 0 C3.96 0 7.92 0 12 0 C12 17.82 12 35.64 12 54 C8.04 54 4.08 54 0 54 C0 36.18 0 18.36 0 0 Z " fill="#111626" transform="translate(168,27)"/>
<path d="M0 0 C0 3 0 3 -0.98007202 4.76324463 C-2.38066545 7.83481923 -2.28194264 10.41742815 -2.31884766 13.78808594 C-2.32889328 14.46166641 -2.3389389 15.13524689 -2.34928894 15.82923889 C-2.38009021 18.0476092 -2.39714721 20.265859 -2.4140625 22.484375 C-2.43277665 24.02566564 -2.45235025 25.56694606 -2.4727478 27.10821533 C-2.52404911 31.15889458 -2.56368544 35.20960704 -2.60089111 39.26043701 C-2.64094337 43.39636436 -2.69203013 47.53215379 -2.7421875 51.66796875 C-2.83892316 59.77855854 -2.92231524 67.88920534 -3 76 C2.94 75.67 8.88 75.34 15 75 C16.19561876 71.41314373 16.1059314 68.17456267 16.0625 64.4453125 C16.05871338 63.70675018 16.05492676 62.96818787 16.05102539 62.20724487 C16.03469929 59.05101733 16.00661687 55.8949198 15.97949219 52.73876953 C15.96135986 50.43262333 15.9492933 48.12649846 15.9375 45.8203125 C15.92920166 45.11182159 15.92090332 44.40333069 15.91235352 43.67337036 C15.89416808 39.98122874 16.11466839 36.58925285 17 33 C17.66 33 18.32 33 19 33 C19 30.03 19 27.06 19 24 C19.66 24 20.32 24 21 24 C20.93433838 24.54245361 20.86867676 25.08490723 20.80102539 25.64379883 C19.70422571 35.9601617 19.65027119 46.32424037 19.4375 56.6875 C19.39422484 58.66081488 19.35060796 60.6341223 19.30664062 62.60742188 C19.19985158 67.40486946 19.10008331 72.20238927 19 77 C11.41 77 3.82 77 -4 77 C-4.09041496 67.69873526 -4.16378135 58.397763 -4.20724869 49.09615803 C-4.2281122 44.7769111 -4.25640687 40.45798075 -4.30175781 36.13891602 C-4.34526027 31.96974265 -4.36914641 27.80087354 -4.37950897 23.63149071 C-4.3868925 22.041864 -4.40131103 20.4522537 -4.42292023 18.86275673 C-4.45201408 16.6338075 -4.45595371 14.4061109 -4.45410156 12.17700195 C-4.46298401 10.90903275 -4.47186646 9.64106354 -4.48101807 8.33467102 C-3.92063167 4.44977686 -2.68605842 2.79480043 0 0 Z " fill="#4C6496" transform="translate(12,8)"/>
<path d="M0 0 C4.62 0 9.24 0 14 0 C14 4.29 14 8.58 14 13 C3.94140625 13.09765625 3.94140625 13.09765625 1 13 C0 12 0 12 -0.09765625 9.27734375 C-0.06510417 6.18489583 -0.03255208 3.09244792 0 0 Z " fill="#121625" transform="translate(167,6)"/>
<path d="M0 0 C0.66 0 1.32 0 2 0 C2.05081435 6.44120913 2.08578161 12.88236632 2.10986328 19.32373047 C2.11990526 21.51385429 2.13354147 23.70396475 2.15087891 25.89404297 C2.17520627 29.04658306 2.18650131 32.19894548 2.1953125 35.3515625 C2.20563507 36.32678864 2.21595764 37.30201477 2.22659302 38.30679321 C2.22740948 43.28191163 1.97323633 47.33660757 0 52 C-0.66 52 -1.32 52 -2 52 C-2.12375 52.639375 -2.2475 53.27875 -2.375 53.9375 C-2.58125 54.618125 -2.7875 55.29875 -3 56 C-3.99 56.495 -3.99 56.495 -5 57 C-3 51 -3 51 -1.95556641 48.44091797 C-0.66416973 43.79070212 -0.64416593 39.37606129 -0.5859375 34.5703125 C-0.56657135 33.57998016 -0.5472052 32.58964783 -0.5272522 31.56930542 C-0.46770447 28.4212899 -0.4211703 25.27323732 -0.375 22.125 C-0.3367974 19.98435948 -0.29774435 17.84373396 -0.2578125 15.703125 C-0.16202348 10.4688836 -0.07690405 5.2345511 0 0 Z " fill="#4A5B9F" transform="translate(59,11)"/>
<path d="M0 0 C0.33 0 0.66 0 1 0 C1.0926259 8.81421584 1.16372688 17.6282645 1.20724869 26.4428606 C1.22813567 30.53573085 1.25647286 34.62826847 1.30175781 38.72094727 C1.34517706 42.66966209 1.36912874 46.61805672 1.37950897 50.56699181 C1.3869075 52.07454152 1.40135512 53.58207345 1.42292023 55.08948708 C1.45190406 57.19912386 1.4559584 59.30743291 1.45410156 61.41723633 C1.46298401 62.61858719 1.47186646 63.81993805 1.48101807 65.05769348 C1 68 1 68 -0.88775635 69.93095398 C-3 71 -3 71 -5.25 70.6875 C-5.8275 70.460625 -6.405 70.23375 -7 70 C-7 69.67 -7 69.34 -7 69 C-5.35 69 -3.7 69 -2 69 C-0.88983656 65.66950968 -0.84147391 63.11054334 -0.79467773 59.60083008 C-0.78477814 58.95665634 -0.77487854 58.3124826 -0.76467896 57.64878845 C-0.73312533 55.5224066 -0.70833095 53.39600242 -0.68359375 51.26953125 C-0.66301891 49.79407678 -0.6420223 48.31862814 -0.62062073 46.84318542 C-0.56545474 42.96180949 -0.51602138 39.08038085 -0.46777344 35.19891357 C-0.41751842 31.23737909 -0.36185324 27.27592106 -0.30664062 23.31445312 C-0.19912601 15.54303351 -0.09766623 7.77155028 0 0 Z " fill="#4865A3" transform="translate(81,14)"/>
<path d="M0 0 C12.54 0 25.08 0 38 0 C34.51122187 5.2331672 32.65360927 7.4040292 28 11 C28 10.01 28 9.02 28 8 C28.66 8 29.32 8 30 8 C30 7.34 30 6.68 30 6 C30.66 5.34 31.32 4.68 32 4 C30.33524314 3.65725594 28.66804677 3.32635698 27 3 C25.7625 2.7525 25.7625 2.7525 24.5 2.5 C19.71775788 1.81682255 14.94844608 1.63684296 10.125 1.4375 C9.15046875 1.39431641 8.1759375 1.35113281 7.171875 1.30664062 C4.78137198 1.20117726 2.39077556 1.09905825 0 1 C0 0.67 0 0.34 0 0 Z " fill="#536693" transform="translate(14,7)"/>
<path d="M0 0 C3.63 0 7.26 0 11 0 C11.33 2.31 11.66 4.62 12 7 C8.04 7 4.08 7 0 7 C0 4.69 0 2.38 0 0 Z " fill="#27324A" transform="translate(148,92)"/>
<path d="M0 0 C0.66 0 1.32 0 2 0 C1.85816304 1.75032844 1.71136571 3.50025534 1.5625 5.25 C1.48128906 6.22453125 1.40007813 7.1990625 1.31640625 8.203125 C1 11 1 11 0.5 12.68554688 C-0.22565568 16.044539 -0.23730194 19.4056896 -0.31640625 22.828125 C-0.33718735 23.57713074 -0.35796844 24.32613647 -0.37937927 25.09783936 C-0.44457088 27.48180288 -0.50361783 29.86587312 -0.5625 32.25 C-0.60571416 33.86980254 -0.64932937 35.48959443 -0.69335938 37.109375 C-0.80022096 41.07280832 -0.90157333 45.0363486 -1 49 C-1.66 48.67 -2.32 48.34 -3 48 C-3.02478423 43.24943417 -3.04289989 38.49890629 -3.05493164 33.74829102 C-3.05994942 32.13337549 -3.06676511 30.51846448 -3.07543945 28.90356445 C-3.08761714 26.57762535 -3.09325395 24.2517465 -3.09765625 21.92578125 C-3.10281754 21.20787918 -3.10797882 20.48997711 -3.11329651 19.75032043 C-3.11370876 16.03709768 -2.88944216 12.61008878 -2 9 C-1.34 9 -0.68 9 0 9 C0 6.03 0 3.06 0 0 Z " fill="#4863A2" transform="translate(31,32)"/>
<path d="M0 0 C0 0.66 0 1.32 0 2 C-0.99 2.495 -0.99 2.495 -2 3 C-1.34 3.33 -0.68 3.66 0 4 C0 5.65 0 7.3 0 9 C-4.75 10.125 -4.75 10.125 -7 9 C-7 8.34 -7 7.68 -7 7 C-6.01 6.67 -5.02 6.34 -4 6 C-4.99 5.34 -5.98 4.68 -7 4 C-6.6875 2.0625 -6.6875 2.0625 -6 0 C-3 -1 -3 -1 0 0 Z " fill="#212841" transform="translate(116,90)"/>
<path d="M0 0 C1.4540625 0.0309375 1.4540625 0.0309375 2.9375 0.0625 C3.86815133 2.66832371 4.08667407 3.70448224 3 6.3125 C2.4740625 7.17875 2.4740625 7.17875 1.9375 8.0625 C-2.9375 7.1875 -2.9375 7.1875 -4.0625 6.0625 C-4.1875 3.5625 -4.1875 3.5625 -4.0625 1.0625 C-3.0625 0.0625 -3.0625 0.0625 0 0 Z " fill="#1F2741" transform="translate(143.0625,91.9375)"/>
<path d="M0 0 C0.99 0 1.98 0 3 0 C3 0.66 3 1.32 3 2 C3.66 2 4.32 2 5 2 C5 1.34 5 0.68 5 0 C5.99 0 6.98 0 8 0 C7.745504 1.48206495 7.47088238 2.96068615 7.1875 4.4375 C7.03667969 5.26121094 6.88585937 6.08492188 6.73046875 6.93359375 C6.36888672 7.95646484 6.36888672 7.95646484 6 9 C5.01 9.33 4.02 9.66 3 10 C0 3.375 0 3.375 0 0 Z " fill="#2A324C" transform="translate(117,92)"/>
<path d="M0 0 C0.33 0.99 0.66 1.98 1 3 C16.84 3.495 16.84 3.495 33 4 C33 4.33 33 4.66 33 5 C21.12 5 9.24 5 -3 5 C-1 1 -1 1 0 0 Z " fill="#456095" transform="translate(42,81)"/>
<path d="M0 0 C1.98 0.495 1.98 0.495 4 1 C4 5 4 5 3 7 C3.66 7 4.32 7 5 7 C5 7.99 5 8.98 5 10 C3.35 9.67 1.7 9.34 0 9 C-1.125 2.25 -1.125 2.25 0 0 Z " fill="#161F34" transform="translate(133,90)"/>
<path d="M0 0 C1.65 0 3.3 0 5 0 C5 2.31 5 4.62 5 7 C3.68 7.33 2.36 7.66 1 8 C0.17361624 5.10765685 0 3.11257569 0 0 Z " fill="#17243A" transform="translate(126,92)"/>
<path d="M0 0 C3.96 0 7.92 0 12 0 C10.77446495 6.12767526 9.72441958 6.48181521 5 10 C5 9.01 5 8.02 5 7 C5.66 7 6.32 7 7 7 C7 6.34 7 5.68 7 5 C7.66 4.34 8.32 3.68 9 3 C8.2575 2.87625 7.515 2.7525 6.75 2.625 C4 2 4 2 0 0 Z " fill="#49619E" transform="translate(37,8)"/>
<path d="M0 0 C2 2 2 2 2.25 4.75 C1.98998031 8.13025595 1.20288037 10.84243904 0 14 C-0.66 14 -1.32 14 -2 14 C-2.12375 14.639375 -2.2475 15.27875 -2.375 15.9375 C-2.58125 16.618125 -2.7875 17.29875 -3 18 C-3.66 18.33 -4.32 18.66 -5 19 C-3 13 -3 13 -1.9375 10.0625 C-0.91372209 6.71815882 -0.41616208 3.4680173 0 0 Z " fill="#4D659A" transform="translate(59,49)"/>
<path d="M0 0 C0 3.10551666 -0.5393715 4.35261084 -2 7 C-2.66 7 -3.32 7 -4 7 C-4 7.66 -4 8.32 -4 9 C-5.32 9.33 -6.64 9.66 -8 10 C-7.04367001 8.70684939 -6.08486149 7.41553147 -5.125 6.125 C-4.59132812 5.40570313 -4.05765625 4.68640625 -3.5078125 3.9453125 C-2 2 -2 2 0 0 Z " fill="#4D6497" transform="translate(51,71)"/>
<path d="M0 0 C4.29 0 8.58 0 13 0 C13 0.33 13 0.66 13 1 C12.07767578 1.07347656 12.07767578 1.07347656 11.13671875 1.1484375 C10.32847656 1.22320313 9.52023438 1.29796875 8.6875 1.375 C7.48673828 1.47941406 7.48673828 1.47941406 6.26171875 1.5859375 C3.72775559 1.89564426 3.72775559 1.89564426 1 4 C0.67 2.68 0.34 1.36 0 0 Z " fill="#1B1E28" transform="translate(187,27)"/>
<path d="M0 0 C1.32 0.33 2.64 0.66 4 1 C4 5 4 5 2 8 C2 6.02 2 4.04 2 2 C1.34 2 0.68 2 0 2 C0 1.34 0 0.68 0 0 Z " fill="#292E4D" transform="translate(133,90)"/>
</svg>
